PathFileType	4	(X/Y/Z)	Patient4_TMGait_0pt7_01_right_13.trc.trc
DataRate	CameraRate	NumFrames	NumMarkers	Units	OrigDataRate	OrigDataStartFrame	OrigNumFrames
89.743589743590	89.743589743590	4	33	mm	89.743589743590	89	       141
Frame#	Time	Sacral			L.Shoulder			Chest			R.Shoulder			Neck			R.ASIS			L.ASIS			R.Thigh.Superior			R.Thigh.Lateral			R.Thigh.Inferior			R.Patella			L.Thigh.Superior			L.Thigh.Lateral			L.Thigh.Inferior			L.Patella			L.Shank.Superior			L.Shank.Lateral			L.Shank.Inferior			R.Shank.Superior			R.Shank.Lateral			R.Shank.Inferior			R.Heel			R.Midfoot.Superior			R.Midfoot.Lateral			R.Toe			L.Heel			L.Midfoot.Lateral			L.Midfoot.Superior			L.Toe			L.Elbow			L.Wrist			R.Elbow			R.Wrist			
		X1	Y1	Z1	X2	Y2	Z2	X3	Y3	Z3	X4	Y4	Z4	X5	Y5	Z5	X6	Y6	Z6	X7	Y7	Z7	X8	Y8	Z8	X9	Y9	Z9	X10	Y10	Z10	X11	Y11	Z11	X12	Y12	Z12	X13	Y13	Z13	X14	Y14	Z14	X15	Y15	Z15	X16	Y16	Z16	X17	Y17	Z17	X18	Y18	Z18	X19	Y19	Z19	X20	Y20	Z20	X21	Y21	Z21	X22	Y22	Z22	X23	Y23	Z23	X24	Y24	Z24	X25	Y25	Z25	X26	Y26	Z26	X27	Y27	Z27	X28	Y28	Z28	X29	Y29	Z29	X30	Y30	Z30	X31	Y31	Z31	X32	Y32	Z32	X33	Y33	Z33	

89	15.360571428571	809.979023883779	1011.375194475374	465.494898104651	995.399473009711	1428.240501971530	275.130348707051	1103.411171041191	1355.231689202866	432.218155740981	1032.029811474285	1438.115715562997	607.988107574292	1007.394467359196	1491.814103901784	429.704209970610	1032.383075158221	938.338166754411	580.922891329874	1021.167682600293	955.577408843755	307.426419818193	1060.275291307583	731.112132742670	566.770630505100	971.236841861786	627.240718717868	629.034681474631	1051.092226403322	562.906909561671	558.701069137910	1035.532289785316	455.070514389694	578.215691374083	1088.065052774937	762.163479741955	341.963060120924	1014.718617606322	636.887136628085	281.146290682527	1107.332546222908	569.597300748996	346.478433603656	1116.034358413190	500.147463801637	356.239886740894	1094.565572535723	426.153300441206	346.957875601547	1015.159372020737	304.872275501965	296.117354975291	1076.228804781297	198.277615448536	366.633259594332	956.011597815408	391.287190775635	582.119160766871	833.732757974742	354.153403509221	641.314325071562	817.184726246161	245.824095252768	589.946741394785	614.505660895055	182.020535609965	559.625285550252	782.468779263719	126.217819856127	601.846239314185	673.353760176530	123.052803223220	632.779812039700	847.832860092446	29.825130263040	624.438029941989	959.877435335387	37.847746588574	408.122616772663	1033.172990437035	35.997830115272	326.474410882511	1114.868997473502	98.020542918487	352.852181537190	1243.890701676336	49.219075580974	323.441322309611	867.276987502256	1097.348115478510	180.881033731670	843.585979704257	839.385118519354	196.460168089695	1057.271432087624	1096.758968852468	737.812981971326	1298.698050206321	1082.570329668980	666.592875654757	
90	15.371714285714	809.195560539999	1012.170486285555	463.024175232739	996.831112137571	1429.006188388012	273.132090610848	1103.467272993535	1355.984136681358	431.141094486993	1030.706122517367	1439.052772883807	606.273435860722	1007.426583021009	1492.607336657463	427.675569256211	1031.346283495240	939.272634195636	579.436115646109	1021.217497334166	956.324199970136	306.050206979867	1065.377424011332	734.348657083408	564.948099453399	980.436301235993	628.187613546659	627.593872841579	1061.908368612935	565.735765157996	556.687688735426	1048.357642378475	456.495060273158	576.631015758923	1086.211086674079	761.123113177769	340.164676046926	1011.432150690713	636.968282019475	279.887014507270	1102.916227039699	568.798793836874	345.712444913586	1110.689520697638	499.437827113856	355.632713131404	1088.886184398106	425.652631953485	346.309719102854	1008.918934923643	304.701712467914	295.623724593268	1069.211923982474	197.960023417588	366.477990582308	967.161739479933	393.318263719829	580.715362223089	843.642620256053	360.040159244360	639.892866734196	824.084153269325	252.060484822261	589.271489872966	620.699744559138	198.171631043276	558.361009812252	784.418663899797	131.467443453412	601.574688772653	675.095282893327	135.434856137978	631.803472822789	842.492558948917	28.815636198234	624.735112107279	952.047286617610	37.809579458091	408.124057751035	1025.325027235005	35.918959864954	326.473947216758	1107.125325399162	97.833920042282	352.909025007509	1236.133930823262	48.799352870869	323.424947131149	873.897752834218	1096.169162160101	176.448510088471	861.810179447344	837.236285138054	192.749448259589	1044.824489123675	1096.632777790682	735.751571397872	1286.190330287472	1067.311883953705	668.092275835877	
91	15.382857142857	808.264219023755	1012.743755147152	460.672021362059	998.183176900434	1429.546312536730	271.253842395643	1103.390245968976	1356.520058839413	430.231756871556	1029.187416065472	1439.754278716272	604.711348708629	1007.371210498891	1493.224322674000	425.768113798571	1030.230292518003	940.053945760210	578.072331480075	1021.113124295752	956.925633441838	304.750186322670	1070.397278752037	737.835012595790	562.862359351789	989.927673316095	629.466646950767	626.111277401776	1072.753807887193	569.039989975475	554.403357161092	1061.508821078065	458.490400138533	574.720150757968	1084.271090162435	760.155568005572	338.636729075651	1008.348027589851	637.098716350270	278.607405788886	1098.621455928098	568.064750202031	344.992778730321	1105.480177418039	498.734838715317	354.993491416158	1083.348368112778	425.128741971397	345.642757517342	1002.817961429929	304.525443157918	295.061263768852	1062.276643742704	197.621491754772	366.287136216366	978.834441264566	395.720573255821	579.108283142573	854.287194650775	365.998665253137	638.312553579394	831.979840109449	258.425827280224	588.410169958219	628.416611056489	213.859996393768	556.891264356020	787.610484588554	137.028154018771	601.073182500863	678.377646454422	147.742986350497	630.640546952682	838.553508193991	28.295760464794	624.946750615516	944.220139769793	37.788376714172	408.107353856060	1017.486980948991	35.848060664586	326.459132913642	1099.407452681913	97.646380725421	352.954863000551	1228.396770786517	48.328974701972	323.416640734412	880.902586620266	1094.787295300066	171.942362054992	880.998475310407	835.388724256888	189.128748066493	1032.315960461332	1096.566224083920	733.534157602126	1272.696048700632	1051.070951599648	670.032539798686	
92	15.394000000000	807.221647662708	1013.126517842711	458.431160496042	999.413382382380	1429.893480777006	269.516120852706	1103.177154425504	1356.874794390848	429.482280358097	1027.507736353318	1440.244937494081	603.313127168389	1007.246010885468	1493.693375896898	424.006778832618	1029.058158737275	940.724780817918	576.805791696353	1020.871900993115	957.429432296784	303.506247098477	1075.234490149418	741.579517501025	560.508177757633	999.552021245140	631.139490986975	624.599264213140	1083.488383042769	572.850267563229	551.921167699105	1074.847799848043	461.098618634905	572.604978417310	1082.295655230689	759.286337944724	337.314467884995	1005.399487649853	637.260575536366	277.321843147002	1094.438039046213	567.376358505042	344.265203675233	1100.403361528237	498.039682710607	354.313409827714	1077.945220502591	424.586723507958	344.952487030146	996.833229116061	304.353193717456	294.447404297652	1055.413633261351	197.268950536678	366.058549195544	990.907508432028	398.521551803184	577.392350385329	865.521187815439	371.960574573008	636.618225613744	840.822676691813	264.797546509153	587.404482758422	637.478458232361	228.568185190342	555.289828830986	792.193161241536	142.760090224643	600.332245277318	683.273170975729	159.541213471025	629.328261456042	836.512967533802	28.459840389838	624.977081062560	936.398027233602	37.782998700721	408.071973528198	1009.659940843229	35.789180868090	326.428285800649	1091.708130331470	97.470954820265	352.984693371586	1220.674175382207	47.839733462250	323.410138763494	888.380329550769	1093.222683221105	167.413016403840	901.082573970476	833.941162675109	185.633070594961	1019.858040219696	1096.562365503482	731.182463107114	1258.107016335064	1033.981867702918	672.400394417246	
